# xmcd
#
# Track frame offsets: 
#        150
#        11965
#        26185
#        39615
#        53215
#        65292
#        79282
#        88025
#        98102
#        110157
#        123827
#        135715
#        144957
#        156510
#
# Disc length: 2223 seconds
#
# Revision: 0
# Processed by: cddbd v1.5.1PL0 Copyright (c) Steve Scherf et al.
# Submitted via: ExactAudioCopy v0.95a5
#
DISCID=c508ad0e
DTITLE=Willie Nelson - Willie Nelson - The Early Years
DYEAR=1994
DGENRE=Country
TTITLE0=End of Understanding
TTITLE1=Will You Remember Mine
TTITLE2=Undo the Right
TTITLE3=A Moment Isn't Very Long
TTITLE4=December Days
TTITLE5=So Much to Do
TTITLE6=Why Are You Picking on Me
TTITLE7=Healing Hands of Time
TTITLE8=I Can't Find the Time
TTITLE9=Everything But You
TTITLE10=I Hope So
TTITLE11=One Step Beyond
TTITLE12=Some Other Time
TTITLE13=I Feel Sorry for Him
EXTD=
EXTT0=
EXTT1=
EXTT2=
EXTT3=
EXTT4=
EXTT5=
EXTT6=
EXTT7=
EXTT8=
EXTT9=
EXTT10=
EXTT11=
EXTT12=
EXTT13=
PLAYORDER=
